<svg width="400" height="300" xmlns="http://www.w3.org/2000/svg">
  <rect width="400" height="300" fill="#1a1a1a" />
  <path d="M280,170 C280,155 250,155 250,170 L230,210 L170,210 L150,170 C150,155 120,155 120,170 L120,185 C120,200 140,200 140,185 L138,180 L145,180 L160,210 L130,210 C120,210 120,225 130,225 L270,225 C280,225 280,210 270,210 L240,210 L255,180 L262,180 L260,185 C260,200 280,200 280,185 L280,170 Z" fill="#f5f5f5" />
  <circle cx="140" cy="210" r="25" stroke="#f5f5f5" stroke-width="8" fill="none" />
  <circle cx="260" cy="210" r="25" stroke="#f5f5f5" stroke-width="8" fill="none" />
  <text x="200" y="130" font-family="Arial" font-size="24" text-anchor="middle" fill="#f5f5f5">Motor Tidak Tersedia</text>
  <text x="200" y="260" font-family="Arial" font-size="16" text-anchor="middle" fill="#999">MotoCruise</text>
</svg> 