<svg width="1440" height="800" viewBox="0 0 1440 800" fill="none" xmlns="http://www.w3.org/2000/svg">
  <g opacity="0.5">
    <path d="M1095.5 325C1095.5 325 1095.5 325 1095.5 325C1095.5 325 1095.5 325 1095.5 325Z" stroke="currentColor" stroke-width="2"/>
    <path d="M1095.5 325C1095.5 325 1095.5 325 1095.5 325C1095.5 325 1095.5 325 1095.5 325Z" stroke="currentColor" stroke-width="2"/>
    <path d="M1095.5 325C1095.5 325 1095.5 325 1095.5 325C1095.5 325 1095.5 325 1095.5 325Z" stroke="currentColor" stroke-width="2"/>
    <path d="M1095.5 325C1095.5 325 1095.5 325 1095.5 325C1095.5 325 1095.5 325 1095.5 325Z" stroke="currentColor" stroke-width="2"/>
    <path d="M1095.5 325C1095.5 325 1095.5 325 1095.5 325C1095.5 325 1095.5 325 1095.5 325Z" stroke="currentColor" stroke-width="2"/>
    <path d="M1095.5 325C1095.5 325 1095.5 325 1095.5 325C1095.5 325 1095.5 325 1095.5 325Z" stroke="currentColor" stroke-width="2"/>
    <path d="M1095.5 325C1095.5 325 1095.5 325 1095.5 325C1095.5 325 1095.5 325 1095.5 325Z" stroke="currentColor" stroke-width="2"/>
    <path d="M1095.5 325C1095.5 325 1095.5 325 1095.5 325C1095.5 325 1095.5 325 1095.5 325Z" stroke="currentColor" stroke-width="2"/>
    <path d="M1095.5 325C1095.5 325 1095.5 325 1095.5 325C1095.5 325 1095.5 325 1095.5 325Z" stroke="currentColor" stroke-width="2"/>
    <path d="M1095.5 325C1095.5 325 1095.5 325 1095.5 325C1095.5 325 1095.5 325 1095.5 325Z" stroke="currentColor" stroke-width="2"/>
    <path d="M1095.5 325C1095.5 325 1095.5 325 1095.5 325C1095.5 325 1095.5 325 1095.5 325Z" stroke="currentColor" stroke-width="2"/>
    <path d="M1095.5 325C1095.5 325 1095.5 325 1095.5 325C1095.5 325 1095.5 325 1095.5 325Z" stroke="currentColor" stroke-width="2"/>
    <path d="M1095.5 325C1095.5 325 1095.5 325 1095.5 325C1095.5 325 1095.5 325 1095.5 325Z" stroke="currentColor" stroke-width="2"/>
    <path d="M1095.5 325C1095.5 325 1095.5 325 1095.5 325C1095.5 325 1095.5 325 1095.5 325Z" stroke="currentColor" stroke-width="2"/>
    <path d="M1095.5 325C1095.5 325 1095.5 325 1095.5 325C1095.5 325 1095.5 325 1095.5 325Z" stroke="currentColor" stroke-width="2"/>
    <path d="M1095.5 325C1095.5 325 1095.5 325 1095.5 325C1095.5 325 1095.5 325 1095.5 325Z" stroke="currentColor" stroke-width="2"/>
    <path d="M1095.5 325C1095.5 325 1095.5 325 1095.5 325C1095.5 325 1095.5 325 1095.5 325Z" stroke="currentColor" stroke-width="2"/>
    <path d="M1095.5 325C1095.5 325 1095.5 325 1095.5 325C1095.5 325 1095.5 325 1095.5 325Z" stroke="currentColor" stroke-width="2"/>
    <path d="M1095.5 325C1095.5 325 1095.5 325 1095.5 325C1095.5 325 1095.5 325 1095.5 325Z" stroke="currentColor" stroke-width="2"/>
    <path d="M1095.5 325C1095.5 325 1095.5 325 1095.5 325C1095.5 325 1095.5 325 1095.5 325Z" stroke="currentColor" stroke-width="2"/>
    <path d="M1095.5 325C1095.5 325 1095.5 325 1095.5 325C1095.5 325 1095.5 325 1095.5 325Z" stroke="currentColor" stroke-width="2"/>
    <path d="M1095.5 325C1095.5 325 1095.5 325 1095.5 325C1095.5 325 1095.5 325 1095.5 325Z" stroke="currentColor" stroke-width="2"/>
    <path d="M1095.5 325C1095.5 325 1095.5 325 1095.5 325C1095.5 325 1095.5 325 1095.5 325Z" stroke="currentColor" stroke-width="2"/>
    <path d="M1095.5 325C1095.5 325 1095.5 325 1095.5 325C1095.5 325 1095.5 325 1095.5 325Z" stroke="currentColor" stroke-width="2"/>
    <path d="M1095.5 325C1095.5 325 1095.5 325 1095.5 325C1095.5 325 1095.5 325 1095.5 325Z" stroke="currentColor" stroke-width="2"/>
    <path d="M1095.5 325C1095.5 325 1095.5 325 1095.5 325C1095.5 325 1095.5 325 1095.5 325Z" stroke="currentColor" stroke-width="2"/>
    <path d="M1095.5 325C1095.5 325 1095.5 325 1095.5 325C1095.5 325 1095.5 325 1095.5 325Z" stroke="currentColor" stroke-width="2"/>
    <path d="M1095.5 325C1095.5 325 1095.5 325 1095.5 325C1095.5 325 1095.5 325 1095.5 325Z" stroke="currentColor" stroke-width="2"/>
    <path d="M1095.5 325C1095.5 325 1095.5 325 1095.5 325C1095.5 325 1095.5 325 1095.5 325Z" stroke="currentColor" stroke-width="2"/>
    <path d="M1095.5 325C1095.5 325 1095.5 325 1095.5 325C1095.5 325 1095.5 325 1095.5 325Z" stroke="currentColor" stroke-width="2"/>
    <path d="M1095.5 325C1095.5 325 1095.5 325 1095.5 325C1095.5 325 1095.5 325 1095.5 325Z" stroke="currentColor" stroke-width="2"/>
    <path d="M1095.5 325C1095.5 325 1095.5 325 1095.5 325C1095.5 325 1095.5 325 1095.5 325Z" stroke="currentColor" stroke-width="2"/>
    <path d="M1095.5 325C1095.5 325 1095.5 325 1095.5 325C1095.5 325 1095.5 325 1095.5 325Z" stroke="currentColor" stroke-width="2"/>
    <path d="M1095.5 325C1095.5 325 1095.5 325 1095.5 325C1095.5 325 1095.5 325 1095.5 325Z" stroke="currentColor" stroke-width="2"/>
    <path d="M1095.5 325C1095.5 325 1095.5 325 1095.5 325C1095.5 325 1095.5 325 1095.5 325Z" stroke="currentColor" stroke-width="2"/>
    <path d="M1095.5 325C1095.5 325 1095.5 325 1095.5 325C1095.5 325 1095.5 325 1095.5 325Z" stroke="currentColor" stroke-width="2"/>
    <path d="M1095.5 325C1095.5 325 1095.5 325 1095.5 325C1095.5 325 1095.5 325 1095.5 325Z" stroke="currentColor" stroke-width="2"/>
    <path d="M1095.5 325C1095.5 325 1095.5 325 1095.5 325C1095.5 325 1095.5 325 1095.5 325Z" stroke="currentColor" stroke-width="2"/>
    <path d="M1095.5 325C1095.5 325 1095.5 325 1095.5 325C1095.5 325 1095.5 325 1095.5 325Z" stroke="currentColor" stroke-width="2"/>
  </g>
</svg>
