<svg width="800" height="600" viewBox="0 0 800 600" fill="none" xmlns="http://www.w3.org/2000/svg">
  <rect width="800" height="600" fill="#1e1e2e"/>
  <g transform="translate(250, 200)">
    <path d="M250 100C250 100 250 100 250 100C250 100 250 100 250 100Z" stroke="currentColor" stroke-width="2"/>
    <path d="M19 17h2c.6 0 1-.4 1-1v-3c0-.9-.7-1.7-1.5-1.9C18.7 10.6 16 10 16 10s-1.3-1.4-2.2-2.3c-.5-.6-1.1-.7-1.8-.7H5c-.6 0-1.1.4-1.4.9l-1.5 2.8C1.4 11.3 1 12.1 1 13v3c0 .6.4 1 1 1h2" stroke="#cba6f7" stroke-width="10" stroke-linecap="round" stroke-linejoin="round"/>
    <circle cx="70" cy="170" r="20" stroke="#cba6f7" stroke-width="10"/>
    <path d="M90 170h60" stroke="#cba6f7" stroke-width="10" stroke-linecap="round"/>
    <circle cx="170" cy="170" r="20" stroke="#cba6f7" stroke-width="10"/>
    <text x="150" y="250" font-family="Arial" font-size="24" text-anchor="middle" fill="#cdd6f4">Motorcycle Image</text>
  </g>
</svg>
